<svg width="17" height="11" viewBox="0 0 17 11" fill="none" xmlns="http://www.w3.org/2000/svg">
<path d="M16.2881 5.08984C16.3428 5.21745 16.3701 5.35417 16.3701 5.5C16.3701 5.64583 16.3428 5.78255 16.2881 5.91016C15.5225 7.36849 14.4469 8.53971 13.0615 9.42383C11.6761 10.3079 10.154 10.75 8.49512 10.75C7.40137 10.75 6.34863 10.5449 5.33691 10.1348C4.3252 9.72461 3.42741 9.15951 2.64355 8.43945C1.8597 7.7194 1.21257 6.8763 0.702148 5.91016C0.647461 5.78255 0.620117 5.64583 0.620117 5.5C0.620117 5.35417 0.647461 5.21745 0.702148 5.08984C1.46777 3.63151 2.54329 2.46029 3.92871 1.57617C5.31413 0.692057 6.83626 0.25 8.49512 0.25C10.154 0.25 11.6761 0.692057 13.0615 1.57617C14.4469 2.46029 15.5225 3.63151 16.2881 5.08984ZM8.49512 9.4375C9.58887 9.4375 10.5186 9.05469 11.2842 8.28906C12.0498 7.52344 12.4326 6.59375 12.4326 5.5C12.4326 4.40625 12.0498 3.47656 11.2842 2.71094C10.5186 1.94531 9.58887 1.5625 8.49512 1.5625C7.40137 1.5625 6.47168 1.94531 5.70605 2.71094C4.94043 3.47656 4.55762 4.40625 4.55762 5.5C4.55762 6.59375 4.94043 7.52344 5.70605 8.28906C6.47168 9.05469 7.40137 9.4375 8.49512 9.4375ZM8.49512 2.875C9.22428 2.875 9.84408 3.13021 10.3545 3.64062C10.8649 4.15104 11.1201 4.76628 11.1201 5.48633C11.1201 6.20638 10.8649 6.82617 10.3545 7.3457C9.84408 7.86523 9.22884 8.125 8.50879 8.125C7.78874 8.125 7.16895 7.86523 6.64941 7.3457C6.12988 6.82617 5.87012 6.21094 5.87012 5.5C5.87012 5.26302 5.90658 5.03516 5.97949 4.81641C6.19824 4.98047 6.45345 5.0625 6.74512 5.0625C7.1097 5.0625 7.4196 4.9349 7.6748 4.67969C7.93001 4.42448 8.05762 4.11458 8.05762 3.75C8.05762 3.45833 7.97559 3.20312 7.81152 2.98438C8.03027 2.91146 8.25814 2.875 8.49512 2.875Z" fill="white"/>
</svg>
