<svg width="22" height="22" viewBox="0 0 22 22" fill="none" xmlns="http://www.w3.org/2000/svg">
<path d="M21.6992 19.0352C21.8997 19.2357 22 19.4792 22 19.7656C22 20.0521 21.8997 20.2956 21.6992 20.4961L20.4961 21.6992C20.2956 21.8997 20.0521 22 19.7656 22C19.4792 22 19.2357 21.8997 19.0352 21.6992L14.7383 17.4023C14.5378 17.2018 14.4375 16.9583 14.4375 16.6719V15.9844C12.8333 17.2448 11 17.875 8.9375 17.875C6.47396 17.875 4.36849 17.0013 2.62109 15.2539C0.873698 13.5065 0 11.401 0 8.9375C0 6.47396 0.873698 4.36849 2.62109 2.62109C4.36849 0.873698 6.47396 0 8.9375 0C11.401 0 13.5065 0.873698 15.2539 2.62109C17.0013 4.36849 17.875 6.47396 17.875 8.9375C17.875 11 17.2448 12.8333 15.9844 14.4375H16.6719C16.9583 14.4375 17.2018 14.5378 17.4023 14.7383L21.6992 19.0352ZM5.04883 12.8262C5.04883 12.8262 5.31738 13.0947 5.85449 13.6318C6.3916 14.1689 7.41927 14.4375 8.9375 14.4375C10.4557 14.4375 11.752 13.9004 12.8262 12.8262C13.9004 11.752 14.4375 10.4557 14.4375 8.9375C14.4375 7.41927 13.9004 6.12305 12.8262 5.04883C11.752 3.97461 10.4557 3.4375 8.9375 3.4375C7.41927 3.4375 6.12305 3.97461 5.04883 5.04883C3.97461 6.12305 3.4375 7.41927 3.4375 8.9375C3.4375 10.4557 3.97461 11.752 5.04883 12.8262Z" fill="white"/>
</svg>
