<svg width="44" height="45" viewBox="0 0 44 45" fill="none" xmlns="http://www.w3.org/2000/svg">
<path d="M21.9646 44.7994C34.0732 44.7994 43.8892 34.9834 43.8892 22.8748C43.8892 10.7662 34.0732 0.950256 21.9646 0.950256C9.856 0.950256 0.0400391 10.7662 0.0400391 22.8748C0.0400391 34.9834 9.856 44.7994 21.9646 44.7994Z" fill="#F4F5F5"/>
<path fill-rule="evenodd" clip-rule="evenodd" d="M31.8297 15.6531C31.8297 18.9338 31.8297 22.2149 31.8297 25.4955C26.5516 21.5582 21.2748 29.4328 15.9967 25.4955C15.9967 22.2149 15.9967 18.9338 15.9967 15.6531C21.2748 19.5897 26.5516 11.7158 31.8297 15.6531ZM14.3919 11.3745C13.3579 11.3745 12.5195 12.2126 12.5195 13.2468C12.5195 13.9926 12.9591 14.6306 13.5896 14.9316V34.3753L15.1944 34.375V14.9316C15.8247 14.6306 16.2645 13.9926 16.2645 13.2468C16.2642 12.2119 15.4266 11.3745 14.3919 11.3745Z" fill="#1565C0"/>
</svg>
