<svg width="44" height="45" viewBox="0 0 44 45" fill="none" xmlns="http://www.w3.org/2000/svg">
<path d="M21.9548 44.7994C34.0634 44.7994 43.8794 34.9834 43.8794 22.8748C43.8794 10.7662 34.0634 0.950256 21.9548 0.950256C9.84624 0.950256 0.0302734 10.7662 0.0302734 22.8748C0.0302734 34.9834 9.84624 44.7994 21.9548 44.7994Z" fill="#F4F5F5"/>
<path d="M21.9553 17.0326C23.5686 17.0326 24.8764 15.7247 24.8764 14.1115C24.8764 12.4982 23.5686 11.1904 21.9553 11.1904C20.342 11.1904 19.0342 12.4982 19.0342 14.1115C19.0342 15.7247 20.342 17.0326 21.9553 17.0326Z" fill="#1565C0"/>
<path fill-rule="evenodd" clip-rule="evenodd" d="M26.3307 24.9722L25.6676 19.8077C25.5931 19.0584 24.968 18.4932 24.2158 18.4932H23.4154C23.2212 18.4932 23.0357 18.5706 22.8984 18.7064L21.9548 19.6499L21.0113 18.7064C20.874 18.5706 20.6885 18.4932 20.4943 18.4932H19.6954C18.9417 18.4932 18.3166 19.0584 18.2436 19.7887L17.579 24.9737C17.5527 25.181 17.617 25.3914 17.7557 25.5476C17.8945 25.7054 18.0931 25.7959 18.3035 25.7959L19.0922 25.7959L19.7027 33.2448C19.7757 33.9926 20.4023 34.5593 21.1559 34.5593H22.7552C23.5089 34.5593 24.134 33.9926 24.2099 33.2316L24.819 25.7959H25.6062C25.8166 25.7959 26.0152 25.7054 26.1539 25.5477C26.2942 25.3914 26.3584 25.181 26.3307 24.9722Z" fill="#1565C0"/>
<path d="M29.258 17.0326C30.8713 17.0326 32.1791 15.7247 32.1791 14.1115C32.1791 12.4982 30.8713 11.1904 29.258 11.1904C27.6447 11.1904 26.3369 12.4982 26.3369 14.1115C26.3369 15.7247 27.6447 17.0326 29.258 17.0326Z" fill="#1565C0"/>
<path fill-rule="evenodd" clip-rule="evenodd" d="M14.6526 11.1904C13.0416 11.1904 11.7314 12.5005 11.7314 14.1115C11.7314 15.7225 13.0416 17.0326 14.6526 17.0326C16.2621 17.0326 17.5737 15.7225 17.5737 14.1115C17.5737 12.5005 16.2621 11.1904 14.6526 11.1904Z" fill="#1565C0"/>
<path fill-rule="evenodd" clip-rule="evenodd" d="M33.6339 24.9722L32.9708 19.8091C32.8963 19.0584 32.2727 18.4932 31.519 18.4932H30.7187C30.5244 18.4932 30.3389 18.5706 30.2016 18.7064L29.2581 19.6499L28.3146 18.7064C28.1773 18.5706 27.9918 18.4932 27.799 18.4932H26.9986C26.9081 18.4932 26.8263 18.5253 26.7401 18.5414C26.9285 18.8744 27.076 19.2351 27.1198 19.6397L27.7815 24.7867C27.8633 25.4133 27.6676 26.0442 27.2469 26.5189C27.0483 26.7468 26.7941 26.9074 26.5225 27.033L27.0074 31.7842C27.0819 32.5335 27.707 33.0987 28.4606 33.0987H30.0599C30.8136 33.0987 31.4387 32.532 31.5147 31.7711L32.1223 25.7959H32.9095C33.1198 25.7959 33.3184 25.7054 33.4572 25.5477C33.5974 25.3914 33.6617 25.181 33.6339 24.9722Z" fill="#1565C0"/>
<path fill-rule="evenodd" clip-rule="evenodd" d="M16.6589 26.5116C16.2442 26.0428 16.0513 25.4133 16.1302 24.7896L16.7948 19.6032C16.8327 19.2147 16.9759 18.8641 17.1584 18.5399C17.0767 18.5253 16.9993 18.4932 16.9131 18.4932H16.1127C15.9184 18.4932 15.733 18.5706 15.5957 18.7064L14.6521 19.6499L13.7086 18.7064C13.5713 18.5706 13.3858 18.4932 13.1931 18.4932H12.3926C11.639 18.4932 11.0139 19.0584 10.9408 19.7887L10.2763 24.9737C10.25 25.181 10.3142 25.3914 10.453 25.5476C10.5918 25.7054 10.7918 25.7959 11.0007 25.7959L11.7894 25.7959L12.3999 31.7842C12.473 32.532 13.0995 33.0987 13.8532 33.0987L15.4525 33.0987C16.2061 33.0987 16.8313 32.532 16.9072 31.7711L17.3921 27.0316C17.119 26.9045 16.8634 26.7424 16.6589 26.5116Z" fill="#1565C0"/>
</svg>
