<svg width="44" height="44" viewBox="0 0 44 44" fill="none" xmlns="http://www.w3.org/2000/svg">
<path d="M21.9851 43.9256C34.0937 43.9256 43.9097 34.1096 43.9097 22.001C43.9097 9.89238 34.0937 0.076416 21.9851 0.076416C9.87651 0.076416 0.0605469 9.89238 0.0605469 22.001C0.0605469 34.1096 9.87651 43.9256 21.9851 43.9256Z" fill="#F4F5F5"/>
<path fill-rule="evenodd" clip-rule="evenodd" d="M16.1738 12.2576C17.9232 11.2094 19.9071 10.6603 21.9853 10.6603C28.2463 10.6603 33.3399 15.7539 33.3399 22.0148C33.3399 24.0767 32.799 26.0469 31.7659 27.7871C32.2407 27.9916 32.6524 28.3147 32.9645 28.7188C34.1997 26.7069 34.8471 24.4157 34.8471 22.0148C34.8471 18.5794 33.5093 15.3494 31.08 12.9201C28.6507 10.4909 25.4208 9.15302 21.9853 9.15302C19.5723 9.15302 17.2712 9.80656 15.2529 11.0532C15.6537 11.3682 15.9734 11.7815 16.1738 12.2576Z" fill="#1565C0"/>
<path fill-rule="evenodd" clip-rule="evenodd" d="M27.8147 31.7613C26.0609 32.8168 24.0709 33.3694 21.9849 33.3694C15.7239 33.3694 10.6303 28.2758 10.6303 22.0148C10.6303 19.9367 11.1794 17.9529 12.2276 16.2033C11.7517 16.0029 11.3382 15.6832 11.0232 15.2825C9.77659 17.3008 9.12305 19.6019 9.12305 22.0148C9.12305 25.4503 10.4609 28.6803 12.8902 31.1095C15.3194 33.5388 18.5494 34.8767 21.9849 34.8767C24.413 34.8767 26.7264 34.2157 28.753 32.9547C28.3469 32.6449 28.0219 32.2347 27.8147 31.7613V31.7613Z" fill="#1565C0"/>
<path fill-rule="evenodd" clip-rule="evenodd" d="M14.9012 13.4236C14.9012 14.2561 14.2265 14.9308 13.394 14.9308C12.5614 14.9308 11.8867 14.2561 11.8867 13.4236C11.8867 12.5911 12.5614 11.9163 13.394 11.9163C14.2265 11.9163 14.9012 12.5911 14.9012 13.4236Z" fill="#1565C0"/>
<path fill-rule="evenodd" clip-rule="evenodd" d="M32.0848 30.5573C32.0848 31.3896 31.4099 32.0646 30.5775 32.0646C29.745 32.0646 29.0703 31.3896 29.0703 30.5573C29.0703 29.7248 29.745 29.05 30.5775 29.05C31.4099 29.05 32.0848 29.7248 32.0848 30.5573Z" fill="#1565C0"/>
<path fill-rule="evenodd" clip-rule="evenodd" d="M31.1825 22.7685H27.757C27.6583 25.4998 27.0395 28.2001 25.5625 30.5208C28.6588 29.2137 30.8985 26.2632 31.1825 22.7685Z" fill="#1565C0"/>
<path fill-rule="evenodd" clip-rule="evenodd" d="M22.7383 21.2612H26.2483C26.1608 18.997 25.679 16.9016 24.8698 15.2962C24.262 14.0906 23.5127 13.2738 22.7383 12.947V21.2612Z" fill="#1565C0"/>
<path fill-rule="evenodd" clip-rule="evenodd" d="M24.8411 28.7898C24.8508 28.7712 24.8602 28.7523 24.8698 28.7335C25.679 27.1283 26.1608 25.0329 26.2483 22.7685H22.7383V31.0827C23.5005 30.761 24.2387 29.9644 24.8412 28.7898H24.8411Z" fill="#1565C0"/>
<path fill-rule="evenodd" clip-rule="evenodd" d="M25.5625 13.5089C25.7939 13.8434 26.0125 14.2135 26.2162 14.6178C27.1276 16.4257 27.6667 18.7613 27.757 21.2613L31.1823 21.2612C30.8985 17.7665 28.6588 14.816 25.5625 13.5089V13.5089Z" fill="#1565C0"/>
<path fill-rule="evenodd" clip-rule="evenodd" d="M18.4071 30.5208C18.1757 30.1863 17.9571 29.8162 17.7534 29.4119C16.842 27.604 16.3029 25.2684 16.2126 22.7684L12.7871 22.7685C13.0711 26.2632 15.3108 29.2137 18.4071 30.5208V30.5208Z" fill="#1565C0"/>
<path fill-rule="evenodd" clip-rule="evenodd" d="M21.2317 31.0827V22.7685H17.7217C17.8092 25.0327 18.291 27.1281 19.1002 28.7335C19.708 29.9391 20.4573 30.7559 21.2317 31.0827Z" fill="#1565C0"/>
<path fill-rule="evenodd" clip-rule="evenodd" d="M19.1002 15.2962C18.291 16.9016 17.8092 18.997 17.7217 21.2612H21.2317V12.947C20.4573 13.2738 19.708 14.0906 19.1002 15.2962H19.1002Z" fill="#1565C0"/>
<path fill-rule="evenodd" clip-rule="evenodd" d="M17.7534 14.6178C17.9573 14.2135 18.1757 13.8433 18.4071 13.5089C15.3108 14.816 13.0711 17.7665 12.7871 21.2612L16.2126 21.2612C16.3029 18.7613 16.842 16.4256 17.7534 14.6177V14.6178Z" fill="#1565C0"/>
</svg>
