<svg width="44" height="45" viewBox="0 0 44 45" fill="none" xmlns="http://www.w3.org/2000/svg">
<path d="M21.9548 44.7994C34.0634 44.7994 43.8794 34.9834 43.8794 22.8748C43.8794 10.7662 34.0634 0.950256 21.9548 0.950256C9.84624 0.950256 0.0302734 10.7662 0.0302734 22.8748C0.0302734 34.9834 9.84624 44.7994 21.9548 44.7994Z" fill="#F4F5F5"/>
<path fill-rule="evenodd" clip-rule="evenodd" d="M30.7785 10.2617C29.7029 10.2617 28.8279 11.1367 28.8279 12.2123C28.8279 12.4259 28.8709 12.6279 28.9347 12.8204L20.8976 20.8582C20.4689 20.7161 20.1107 20.7156 19.6803 20.8581L18.2316 19.409C18.2954 19.2165 18.3383 19.0144 18.3383 18.8008C18.3383 17.7252 17.4633 16.8502 16.3878 16.8502C15.3122 16.8502 14.4372 17.7252 14.4372 18.8008C14.4372 19.0144 14.4802 19.2165 14.544 19.409L13.0953 20.8581C12.9027 20.7943 12.7005 20.7513 12.4867 20.7513C11.4111 20.7513 10.5361 21.6263 10.5361 22.7019C10.5361 23.7774 11.4111 24.6524 12.4867 24.6524C13.5622 24.6524 14.4372 23.7774 14.4372 22.7019C14.4372 22.3187 14.3222 21.9634 14.1306 21.6617L15.3473 20.4446C15.6492 20.6363 16.0044 20.7513 16.3878 20.7513C16.7711 20.7513 17.1264 20.6363 17.4282 20.4446L18.6449 21.6617C18.4533 21.9634 18.3383 22.3187 18.3383 22.7019C18.3383 23.7774 19.2133 24.6524 20.2889 24.6524C21.3644 24.6524 22.2394 23.7774 22.2394 22.7019C22.2394 22.3187 22.1244 21.9635 21.9328 21.6617L29.7379 13.8561C30.0398 14.0478 30.3951 14.1628 30.7785 14.1628C31.854 14.1628 32.729 13.2879 32.729 12.2123C32.729 11.1367 31.854 10.2617 30.7785 10.2617Z" fill="#1565C0"/>
<path fill-rule="evenodd" clip-rule="evenodd" d="M17.0381 23.733V32.4546H19.6388V26.3337L17.0381 23.733Z" fill="#1565C0"/>
<path fill-rule="evenodd" clip-rule="evenodd" d="M20.9395 26.3337V32.4546H23.5743V23.7076L20.9395 26.3337Z" fill="#1565C0"/>
<path fill-rule="evenodd" clip-rule="evenodd" d="M12.0274 27.4436C11.9055 27.5655 11.8369 27.7306 11.8369 27.9033V31.8044C11.8369 32.1638 12.1277 32.4546 12.4871 32.4546H15.738V23.733L12.0274 27.4436Z" fill="#1565C0"/>
<path fill-rule="evenodd" clip-rule="evenodd" d="M24.9268 22.4073V32.4546H27.3495V19.9932L24.9268 22.4073Z" fill="#1565C0"/>
<path fill-rule="evenodd" clip-rule="evenodd" d="M31.6193 15.7404L28.6582 18.6929V32.4546H32.079C32.4384 32.4546 32.7292 32.1638 32.7292 31.8044V16.2001C32.7292 15.6209 32.0258 15.3312 31.6193 15.7404Z" fill="#1565C0"/>
</svg>
