<svg width="11" height="13" viewBox="0 0 11 13" fill="none" xmlns="http://www.w3.org/2000/svg">
<g clip-path="url(#clip0_94_658)">
<path d="M4.52344 8.89062C4.63281 9 4.6875 9.12891 4.6875 9.27734C4.6875 9.42578 4.63281 9.5625 4.52344 9.6875L4.125 10.0625C4.01562 10.1875 3.88672 10.25 3.73828 10.25C3.58984 10.25 3.46094 10.1875 3.35156 10.0625L0.164062 6.89844C0.0546875 6.78906 0 6.65625 0 6.5C0 6.34375 0.0546875 6.21094 0.164062 6.10156L3.35156 2.9375C3.46094 2.8125 3.58984 2.75 3.73828 2.75C3.88672 2.75 4.01562 2.8125 4.125 2.9375L4.52344 3.3125C4.63281 3.4375 4.6875 3.57422 4.6875 3.72266C4.6875 3.87109 4.63281 4 4.52344 4.10938L3 5.65625H9.9375C10.0938 5.65625 10.2266 5.71094 10.3359 5.82031C10.4453 5.92969 10.5 6.0625 10.5 6.21875V6.78125C10.5 6.9375 10.4453 7.07031 10.3359 7.17969C10.2266 7.28906 10.0938 7.34375 9.9375 7.34375H3L4.52344 8.89062Z" fill="#151515"/>
</g>
<defs>
<clipPath id="clip0_94_658">
<rect width="10.5" height="13" fill="white" transform="matrix(1 0 0 -1 0 13)"/>
</clipPath>
</defs>
</svg>
