<svg width="44" height="45" viewBox="0 0 44 45" fill="none" xmlns="http://www.w3.org/2000/svg">
<path d="M21.9646 44.7994C34.0732 44.7994 43.8892 34.9834 43.8892 22.8748C43.8892 10.7662 34.0732 0.950256 21.9646 0.950256C9.856 0.950256 0.0400391 10.7662 0.0400391 22.8748C0.0400391 34.9834 9.856 44.7994 21.9646 44.7994Z" fill="#F4F5F5"/>
<path fill-rule="evenodd" clip-rule="evenodd" d="M21.9649 18.8027C21.5649 19.3703 21.0453 20.3941 20.9141 21.9892H23.0156C22.8845 20.3941 22.3649 19.3703 21.9649 18.8027Z" fill="#1565C0"/>
<path fill-rule="evenodd" clip-rule="evenodd" d="M24.5638 23.5336C24.4674 24.8962 24.1244 25.9489 23.7412 26.7262C25.0278 26.1472 25.9831 24.9607 26.2402 23.5336H24.5638Z" fill="#1565C0"/>
<path fill-rule="evenodd" clip-rule="evenodd" d="M20.9141 23.5336C21.047 25.115 21.5692 26.1445 21.9673 26.7155C22.3669 26.1471 22.8841 25.1245 23.0149 23.5336H20.9141Z" fill="#1565C0"/>
<path fill-rule="evenodd" clip-rule="evenodd" d="M23.7412 18.7966C24.1245 19.5739 24.4674 20.6267 24.5638 21.9892H26.2402C25.9831 20.5622 25.0278 19.3756 23.7412 18.7966Z" fill="#1565C0"/>
<path fill-rule="evenodd" clip-rule="evenodd" d="M19.3648 23.5336H17.6885C17.9455 24.9606 18.9009 26.1472 20.1874 26.7261C19.8042 25.9489 19.4612 24.8962 19.3648 23.5336Z" fill="#1565C0"/>
<path fill-rule="evenodd" clip-rule="evenodd" d="M17.6885 21.9892H19.3648C19.4611 20.6267 19.8042 19.574 20.1874 18.7968C18.9009 19.3757 17.9455 20.5623 17.6885 21.9892Z" fill="#1565C0"/>
<path fill-rule="evenodd" clip-rule="evenodd" d="M12.9824 13.5658V35.0472H30.9464V13.5658H12.9824ZM27.083 31.7435H16.8459V30.199H27.083V31.7435H27.083ZM21.9644 28.6522C18.7162 28.6522 16.0738 26.0096 16.0738 22.7614C16.0738 19.5133 18.7163 16.8707 21.9644 16.8707C25.2126 16.8707 27.8552 19.5133 27.8552 22.7614C27.8552 26.0096 25.2126 28.6522 21.9644 28.6522Z" fill="#1565C0"/>
<path fill-rule="evenodd" clip-rule="evenodd" d="M13.6738 12.0214H29.4009V8.69098L13.6738 12.0214Z" fill="#1565C0"/>
</svg>
