<svg width="44" height="45" viewBox="0 0 44 45" fill="none" xmlns="http://www.w3.org/2000/svg">
<path d="M21.9851 44.7855C34.0937 44.7855 43.9097 34.9696 43.9097 22.861C43.9097 10.7524 34.0937 0.936401 21.9851 0.936401C9.87651 0.936401 0.0605469 10.7524 0.0605469 22.861C0.0605469 34.9696 9.87651 44.7855 21.9851 44.7855Z" fill="#F4F5F5"/>
<path fill-rule="evenodd" clip-rule="evenodd" d="M14.6815 16.4898C13.739 15.5473 9.73355 15.3117 8.43765 15.1939C8.31985 15.1939 8.20202 15.1939 8.08422 15.3117C7.96643 15.4295 7.84863 15.6652 7.84863 15.783V26.3857C7.84863 26.7391 8.08426 26.9748 8.43769 26.9748H11.9719C12.2076 26.9748 12.4432 26.857 12.561 26.6213C12.561 26.2679 14.6815 20.0241 14.9172 16.9611C14.9171 16.8432 14.9171 16.6076 14.6815 16.4898Z" fill="#1565C0"/>
<path fill-rule="evenodd" clip-rule="evenodd" d="M27.2873 19.3172C26.1092 18.9638 25.049 18.4926 24.1065 18.1391C21.9859 17.1967 21.0435 17.6679 19.1586 19.5528C18.3339 20.3775 17.7449 21.5556 17.8627 22.0268C17.8627 22.1446 17.8627 22.1446 18.0983 22.2624C18.6873 22.4981 19.512 22.6159 20.3366 21.32C20.4544 21.2022 20.5723 21.0843 20.8079 21.0843C21.1613 21.0843 21.2791 20.9665 21.6325 20.8487C21.8681 20.7309 22.1037 20.6131 22.4571 20.4953C22.5749 20.4953 22.5749 20.4953 22.6928 20.4953C22.8106 20.4953 23.0462 20.6131 23.164 20.6131C23.7531 21.2022 24.8133 22.0268 25.8736 22.9693C27.5229 24.2652 29.1722 25.6789 29.9969 26.7392L30.1147 26.7392C29.2901 24.383 27.8764 20.3775 27.2873 19.3172Z" fill="#1565C0"/>
<path fill-rule="evenodd" clip-rule="evenodd" d="M35.5335 16.372C30.939 16.372 28.3472 17.5501 28.2294 17.5501C28.1116 17.6679 27.9938 17.7857 27.876 17.9035C27.876 18.0213 27.876 18.2569 27.9938 18.3747C28.7006 19.5528 31.0568 26.0323 31.4102 27.6816C31.528 27.9172 31.7636 28.1528 31.9993 28.1528L35.5335 28.1528C35.8869 28.1528 36.1226 27.9171 36.1226 27.5637V16.961C36.1226 16.6076 35.8869 16.372 35.5335 16.372Z" fill="#1565C0"/>
<path fill-rule="evenodd" clip-rule="evenodd" d="M29.1718 27.9173C28.7006 26.857 26.6978 25.3255 24.9307 23.9118C23.9883 23.0871 23.0458 22.3803 22.3389 21.7912C22.2212 21.909 21.9855 21.909 21.9855 22.0268C21.6321 22.1446 21.5143 22.2625 21.0431 22.2625C20.1006 23.4405 18.9225 23.9117 17.6267 23.4405C17.0376 23.3227 16.6842 22.8515 16.5664 22.3803C16.3307 21.2022 17.391 19.5529 18.2157 18.7282H15.8595C15.3883 21.0844 14.5636 24.1474 13.9746 25.7967C14.4458 26.2679 14.9171 26.857 15.2705 27.0926C17.5089 28.9775 20.1006 30.8625 20.5719 31.2159C20.9253 31.4515 21.6321 31.6871 21.9856 31.6871C22.1034 31.6871 22.2212 31.6871 22.339 31.6871L20.454 29.8022C20.2184 29.5665 20.2184 29.2131 20.454 28.9775C20.6897 28.7419 21.0431 28.7419 21.2787 28.9775L23.6348 31.3337C23.8705 31.5693 24.1061 31.4515 24.3417 31.4515C24.6951 31.3337 24.8129 31.0981 24.9308 30.7447L22.2212 28.035C21.9855 27.7994 21.9855 27.446 22.2212 27.2104C22.4568 26.9748 22.8102 26.9748 23.0458 27.2104L25.991 30.1556C26.1088 30.2734 26.58 30.2734 26.9335 30.1556C27.0513 30.0378 27.2869 29.92 27.4047 29.6844L24.1061 26.3857C23.8704 26.1501 23.8704 25.7967 24.1061 25.5611C24.3417 25.3255 24.6951 25.3254 24.9307 25.5611L28.3472 28.9775C28.5828 29.0953 28.8184 28.9775 29.054 28.8597C29.1718 28.7419 29.4074 28.3885 29.1718 27.9173Z" fill="#1565C0"/>
</svg>
